<svg xmlns="http://www.w3.org/2000/svg" width="1200" height="675" viewBox="0 0 1200 675">
  <defs>
    <linearGradient id="bg" x1="0" y1="0" x2="1" y2="1">
      <stop offset="0" stop-color="#f8fbff"/>
      <stop offset="1" stop-color="#edf3ff"/>
    </linearGradient>
    <filter id="shadow" x="-20%" y="-20%" width="140%" height="140%">
      <feDropShadow dx="0" dy="10" stdDeviation="16" flood-color="#0f172a" flood-opacity=".12"/>
    </filter>
  </defs>
  <rect width="1200" height="675" rx="32" fill="url(#bg)"/>
  <rect x="55" y="45" width="1090" height="585" rx="24" fill="#ffffff" filter="url(#shadow)"/>
  <text x="90" y="98" fill="#0f172a" font-family="Inter,Arial,sans-serif" font-size="34" font-weight="800">Marketing Analytics Dashboard</text>
  <text x="90" y="130" fill="#64748b" font-family="Inter,Arial,sans-serif" font-size="17">Power BI sales, platform, region, product and customer feedback analysis</text>
  <g font-family="Inter,Arial,sans-serif">
    <rect x="90" y="165" width="230" height="90" rx="16" fill="#f8fafc" stroke="#dbe4f0"/>
    <text x="116" y="199" fill="#64748b" font-size="15" font-weight="700">Total Sales</text>
    <text x="116" y="230" fill="#2456d3" font-size="32" font-weight="900">RM</text>
    <text x="172" y="230" fill="#0f172a" font-size="32" font-weight="900">Sales KPI</text>

    <rect x="346" y="165" width="230" height="90" rx="16" fill="#f8fafc" stroke="#dbe4f0"/>
    <text x="372" y="199" fill="#64748b" font-size="15" font-weight="700">Total Orders</text>
    <text x="372" y="230" fill="#0f172a" font-size="32" font-weight="900">Orders</text>

    <rect x="602" y="165" width="230" height="90" rx="16" fill="#f8fafc" stroke="#dbe4f0"/>
    <text x="628" y="199" fill="#64748b" font-size="15" font-weight="700">Avg. Order Value</text>
    <text x="628" y="230" fill="#0f172a" font-size="32" font-weight="900">AOV</text>

    <rect x="858" y="165" width="230" height="90" rx="16" fill="#f8fafc" stroke="#dbe4f0"/>
    <text x="884" y="199" fill="#64748b" font-size="15" font-weight="700">Customer of Month</text>
    <text x="884" y="230" fill="#0f172a" font-size="32" font-weight="900">Top Buyer</text>
  </g>

  <g transform="translate(90,300)">
    <rect width="510" height="260" rx="18" fill="#f8fafc" stroke="#dbe4f0"/>
    <text x="28" y="42" fill="#0f172a" font-family="Inter,Arial,sans-serif" font-size="20" font-weight="800">Monthly Sales Trend</text>
    <g stroke="#dbe4f0" stroke-width="2">
      <line x1="40" y1="80" x2="470" y2="80"/><line x1="40" y1="125" x2="470" y2="125"/><line x1="40" y1="170" x2="470" y2="170"/><line x1="40" y1="215" x2="470" y2="215"/>
    </g>
    <path d="M45 205 C95 170, 130 190, 170 145 S250 105, 300 132 S390 78, 465 102" fill="none" stroke="#2456d3" stroke-width="7" stroke-linecap="round"/>
    <g fill="#2456d3"><circle cx="45" cy="205" r="7"/><circle cx="170" cy="145" r="7"/><circle cx="300" cy="132" r="7"/><circle cx="465" cy="102" r="7"/></g>
  </g>

  <g transform="translate(630,300)">
    <rect width="220" height="260" rx="18" fill="#f8fafc" stroke="#dbe4f0"/>
    <text x="24" y="42" fill="#0f172a" font-family="Inter,Arial,sans-serif" font-size="20" font-weight="800">Products</text>
    <g fill="#2456d3">
      <rect x="32" y="195" width="28" height="35" rx="6"/><rect x="75" y="150" width="28" height="80" rx="6"/><rect x="118" y="110" width="28" height="120" rx="6"/><rect x="161" y="70" width="28" height="160" rx="6"/>
    </g>
  </g>

  <g transform="translate(875,300)">
    <rect width="213" height="260" rx="18" fill="#f8fafc" stroke="#dbe4f0"/>
    <text x="24" y="42" fill="#0f172a" font-family="Inter,Arial,sans-serif" font-size="20" font-weight="800">Category</text>
    <circle cx="106" cy="150" r="70" fill="#dbeafe"/>
    <path d="M106 80a70 70 0 0 1 61 104l-61-34z" fill="#2456d3"/>
    <path d="M106 150l-60 36a70 70 0 0 1 60-106z" fill="#7aa2ff"/>
    <path d="M106 150l61 34a70 70 0 0 1-121 2z" fill="#0b2246"/>
    <circle cx="106" cy="150" r="36" fill="#f8fafc"/>
  </g>
</svg>
