<svg xmlns="http://www.w3.org/2000/svg" width="900" height="500" viewBox="0 0 900 500"><rect width="900" height="500" fill="#eff4fb"/><g fill="none" stroke="#d3deed" stroke-width="2"><path d="M80 420H830"/><path d="M80 340H830"/><path d="M80 260H830"/><path d="M80 180H830"/><path d="M80 100H830"/></g><g fill="#ff4d1c"><rect x="110" y="300" width="50" height="120" rx="8"/><rect x="190" y="230" width="50" height="190" rx="8"/><rect x="270" y="265" width="50" height="155" rx="8"/><rect x="350" y="180" width="50" height="240" rx="8"/></g><g fill="#174b8f"><circle cx="610" cy="250" r="105" opacity=".12"/><path d="M610 145a105 105 0 0 1 91 157l-91-52z"/><path d="M610 250l-88 57a105 105 0 0 1 88-162z" opacity=".55"/><path d="M610 250l91 52a105 105 0 0 1-179 5z" opacity=".75"/></g><path d="M100 170c70 42 126 35 185-15 70-60 145-20 205-43 75-28 123-108 225-74" fill="none" stroke="#ff4d1c" stroke-width="10" stroke-linecap="round"/></svg>