<svg xmlns="http://www.w3.org/2000/svg" width="900" height="500" viewBox="0 0 900 500"><rect width="900" height="500" fill="#eef3fb"/><g fill="#fff" stroke="#d8e0ed" stroke-width="2"><rect x="60" y="60" width="250" height="160" rx="20"/><rect x="340" y="60" width="500" height="160" rx="20"/><rect x="60" y="250" width="360" height="185" rx="20"/><rect x="450" y="250" width="390" height="185" rx="20"/></g><g fill="#ff4d1c"><rect x="95" y="150" width="28" height="45" rx="6"/><rect x="145" y="120" width="28" height="75" rx="6"/><rect x="195" y="90" width="28" height="105" rx="6"/><rect x="245" y="135" width="28" height="60" rx="6"/></g><path d="M380 175c65-70 125-20 190-60 73-45 120-26 215-72" fill="none" stroke="#174b8f" stroke-width="8" stroke-linecap="round"/><circle cx="235" cy="340" r="68" fill="#174b8f" opacity=".16"/><path d="M235 272a68 68 0 0 1 60 100l-60-32z" fill="#174b8f"/><path d="M235 340l-58 36a68 68 0 0 1 58-104z" fill="#ff4d1c"/><g fill="#174b8f"><rect x="510" y="306" width="260" height="18" rx="9" opacity=".9"/><rect x="510" y="350" width="210" height="18" rx="9" opacity=".65"/><rect x="510" y="394" width="300" height="18" rx="9" opacity=".38"/></g></svg>