<svg xmlns="http://www.w3.org/2000/svg" width="1200" height="720" viewBox="0 0 1200 720">
  <defs><linearGradient id="b" x1="0" x2="1" y1="0" y2="1"><stop offset="0" stop-color="#eff6ff"/><stop offset="1" stop-color="#dbeafe"/></linearGradient></defs>
  <rect width="1200" height="720" fill="url(#b)"/>
  <rect x="70" y="70" width="1060" height="580" rx="38" fill="#fff" stroke="#d8e2ef"/>
  <text x="112" y="138" font-family="Arial" font-size="42" font-weight="800" fill="#071a36">Library Management System</text>
  <text x="112" y="178" font-family="Arial" font-size="22" fill="#607086">Diploma internship project • NetBeans • JavaScript • SQL Database</text>
  <g transform="translate(110 240)">
    <rect width="390" height="285" rx="24" fill="#071a36"/>
    <rect x="28" y="28" width="334" height="48" rx="12" fill="#102b55"/>
    <text x="50" y="59" font-family="Consolas, monospace" font-size="19" fill="#93c5fd">LibrarySystem.js</text>
    <text x="34" y="118" font-family="Consolas, monospace" font-size="18" fill="#bbf7d0">function issueBook(id) {</text>
    <text x="56" y="154" font-family="Consolas, monospace" font-size="18" fill="#fde68a">validateMember();</text>
    <text x="56" y="190" font-family="Consolas, monospace" font-size="18" fill="#fca5a5">updateSQLRecord();</text>
    <text x="34" y="226" font-family="Consolas, monospace" font-size="18" fill="#bbf7d0">}</text>
  </g>
  <g transform="translate(560 234)">
    <rect x="0" y="70" width="135" height="260" rx="12" fill="#2456d3"/><rect x="150" y="30" width="135" height="300" rx="12" fill="#60a5fa"/><rect x="300" y="95" width="135" height="235" rx="12" fill="#93c5fd"/>
    <g fill="#fff" opacity=".8"><rect x="24" y="100" width="84" height="16" rx="8"/><rect x="174" y="60" width="84" height="16" rx="8"/><rect x="324" y="125" width="84" height="16" rx="8"/></g>
    <text x="30" y="365" font-family="Arial" font-size="22" font-weight="700" fill="#071a36">Book Records</text>
  </g>
  <g transform="translate(895 275)">
    <ellipse cx="105" cy="32" rx="98" ry="32" fill="#071a36"/><rect x="7" y="32" width="196" height="150" fill="#102b55"/><ellipse cx="105" cy="182" rx="98" ry="32" fill="#2456d3"/>
    <g stroke="#93c5fd" stroke-width="4"><path d="M7 82c50 42 146 42 196 0"/><path d="M7 132c50 42 146 42 196 0"/></g>
    <text x="52" y="250" font-family="Arial" font-size="24" font-weight="800" fill="#071a36">SQL DB</text>
  </g>
</svg>