<svg xmlns="http://www.w3.org/2000/svg" width="1200" height="720" viewBox="0 0 1200 720">
  <defs>
    <linearGradient id="bg" x1="0" x2="1" y1="0" y2="1"><stop offset="0" stop-color="#071a36"/><stop offset="1" stop-color="#0f8b4c"/></linearGradient>
    <filter id="shadow"><feDropShadow dx="0" dy="18" stdDeviation="18" flood-color="#000" flood-opacity=".25"/></filter>
  </defs>
  <rect width="1200" height="720" fill="url(#bg)"/>
  <circle cx="1000" cy="80" r="230" fill="#ffffff" opacity=".06"/>
  <circle cx="160" cy="610" r="250" fill="#20c26a" opacity=".12"/>
  <g filter="url(#shadow)">
    <rect x="78" y="82" width="1044" height="556" rx="36" fill="#ffffff" opacity=".96"/>
  </g>
  <text x="115" y="145" font-family="Arial, sans-serif" font-size="42" font-weight="800" fill="#071a36">MongoDB Data Analytics</text>
  <text x="115" y="185" font-family="Arial, sans-serif" font-size="22" fill="#607086">NoSQL schema • ingestion • aggregation • insights</text>
  <g transform="translate(126 244)">
    <rect width="286" height="260" rx="24" fill="#f4f8fb" stroke="#dce5f0"/>
    <text x="28" y="55" font-family="Arial" font-size="22" font-weight="700" fill="#0f172a">Collections</text>
    <g fill="#2456d3" opacity=".14"><rect x="28" y="84" width="220" height="28" rx="14"/><rect x="28" y="128" width="170" height="28" rx="14"/><rect x="28" y="172" width="235" height="28" rx="14"/></g>
    <g fill="#2456d3"><circle cx="44" cy="98" r="7"/><circle cx="44" cy="142" r="7"/><circle cx="44" cy="186" r="7"/></g>
    <text x="62" y="105" font-family="Arial" font-size="16" fill="#334155">customers</text>
    <text x="62" y="149" font-family="Arial" font-size="16" fill="#334155">orders</text>
    <text x="62" y="193" font-family="Arial" font-size="16" fill="#334155">products &amp; reviews</text>
  </g>
  <g transform="translate(472 236)">
    <path d="M112 18C160 76 173 142 112 238C51 142 64 76 112 18Z" fill="#10a65a"/>
    <path d="M112 18v220" stroke="#0b6b3c" stroke-width="7" stroke-linecap="round"/>
    <ellipse cx="112" cy="256" rx="86" ry="20" fill="#0b6b3c" opacity=".22"/>
    <text x="-2" y="323" font-family="Arial" font-size="28" font-weight="800" fill="#071a36">MongoDB</text>
  </g>
  <g transform="translate(742 235)">
    <rect x="0" y="0" width="300" height="270" rx="24" fill="#071a36"/>
    <text x="28" y="48" font-family="Consolas, monospace" font-size="18" fill="#93c5fd">db.orders.aggregate([</text>
    <text x="42" y="86" font-family="Consolas, monospace" font-size="18" fill="#bbf7d0">{$match: {...}},</text>
    <text x="42" y="124" font-family="Consolas, monospace" font-size="18" fill="#fde68a">{$group: {...}},</text>
    <text x="42" y="162" font-family="Consolas, monospace" font-size="18" fill="#fca5a5">{$sort: {...}}</text>
    <text x="28" y="200" font-family="Consolas, monospace" font-size="18" fill="#93c5fd">])</text>
    <rect x="28" y="222" width="244" height="16" rx="8" fill="#1d4ed8" opacity=".75"/>
  </g>
</svg>